Coordinates
version=1
nRows=32
nColumns=22
inDegrees=yes

Units are S.I. units (second, meters, Newtons, ...)
If the header above contains a line with 'inDegrees', this indicates whether rotational values are in degrees (yes) or radians (no).

endheader
time	pelvis_tilt	pelvis_list	pelvis_rotation	pelvis_tx	pelvis_ty	pelvis_tz	hip_flexion_r	hip_adduction_r	hip_rotation_r	knee_angle_r	ankle_angle_r	subtalar_angle_r	hip_flexion_l	hip_adduction_l	hip_rotation_l	knee_angle_l	ankle_angle_l	subtalar_angle_l	lumbar_extension	lumbar_bending	lumbar_rotation
      0.01000000	      0.29130817	     -2.91839083	     -0.13453396	     -1.00424783	      0.94328286	     -0.68842422	      3.10176120	      2.29826902	    -11.58862846	    -13.86616485	     11.20175585	     -1.21508295	      6.52518896	     -4.67618974	     -9.69788298	    -21.66183201	     13.26465989	     -1.25554648	     -8.19418629	     -1.31329860	     -3.98024470
      0.02000000	      0.28291506	     -2.90730725	     -0.15111033	     -1.00426437	      0.94328755	     -0.68851182	      3.11471252	      2.27346925	    -11.65617938	    -13.86653841	     11.15456719	     -1.26769713	      6.50131011	     -4.65477877	     -9.72626436	    -21.60613702	     13.28934126	     -1.32617108	     -8.19364252	     -1.31845827	     -3.97567752
      0.03000000	      0.25900777	     -2.90698634	     -0.16895198	     -1.00427503	      0.94326865	     -0.68859085	      3.13466025	      2.26532696	    -11.69199426	    -13.85096252	     11.16024731	     -1.27489824	      6.49077143	     -4.64834657	     -9.76604937	    -21.54431201	     13.28646019	     -1.34192623	     -8.17269409	     -1.31282399	     -3.98729454
      0.04000000	      0.22968185	     -2.88047410	     -0.19036913	     -1.00429403	      0.94324492	     -0.68871612	      3.17751273	      2.21940711	    -11.74869223	    -13.86718141	     11.15687647	     -1.28682896	      6.48334478	     -4.60868086	     -9.81395441	    -21.47850229	     13.27401869	     -1.37252197	     -8.14623071	     -1.33263015	     -3.97648760
      0.05000000	      0.19774923	     -2.86485861	     -0.20047558	     -1.00429699	      0.94321920	     -0.68886012	      3.21175325	      2.18866358	    -11.79211329	    -13.86527381	     11.16346000	     -1.28945080	      6.47767843	     -4.57898693	     -9.84517508	    -21.40799153	     13.26400047	     -1.39289524	     -8.11403861	     -1.33999264	     -3.98218514
      0.06000000	      0.17472669	     -2.86559073	     -0.19997627	     -1.00428571	      0.94320523	     -0.68902994	      3.22714227	      2.17835108	    -11.81689529	    -13.84964801	     11.16497245	     -1.28891549	      6.46750735	     -4.56741541	     -9.87277937	    -21.34699241	     13.26407790	     -1.39649050	     -8.09097301	     -1.32446050	     -3.99903106
      0.07000000	      0.15190555	     -2.85889426	     -0.19322710	     -1.00426039	      0.94319194	     -0.68923347	      3.24002732	      2.15869345	    -11.84167808	    -13.83213998	     11.16150663	     -1.28711000	      6.45733890	     -4.54398634	     -9.89137381	    -21.28511712	     13.26269485	     -1.39935753	     -8.06558995	     -1.31604926	     -4.01236402
      0.08000000	      0.13048028	     -2.84678159	     -0.18037703	     -1.00422914	      0.94318427	     -0.68946805	      3.25004992	      2.13227142	    -11.85812178	    -13.81334769	     11.15665352	     -1.28291177	      6.44604316	     -4.51092480	     -9.89564368	    -21.22180042	     13.25741874	     -1.40232322	     -8.04059850	     -1.31087133	     -4.03035578
      0.09000000	      0.11141306	     -2.82851470	     -0.16266110	     -1.00421300	      0.94318256	     -0.68972943	      3.25604568	      2.09907548	    -11.86456808	    -13.79105476	     11.15171606	     -1.27457597	      6.43614887	     -4.46621366	     -9.87836566	    -21.16052843	     13.24536439	     -1.40661535	     -8.02224977	     -1.31085911	     -4.05272702
      0.10000000	      0.10548077	     -2.82776587	     -0.14842911	     -1.00425487	      0.94318343	     -0.68999395	      3.26031908	      2.08402361	    -11.86111968	    -13.78419886	     11.15151114	     -1.27376820	      6.44055102	     -4.44816275	     -9.88180305	    -21.14994380	     13.24456415	     -1.40676521	     -8.03141169	     -1.28809981	     -4.05046830
      0.11000000	      0.08159787	     -2.80265641	     -0.12554094	     -1.00423754	      0.94318054	     -0.69028609	      3.26231646	      2.04480079	    -11.85282292	    -13.74355922	     11.14347640	     -1.26056042	      6.43078048	     -4.38943157	     -9.84075616	    -21.07522345	     13.22749265	     -1.41409453	     -8.00564605	     -1.29226274	     -4.08879800
      0.12000000	      0.07726506	     -2.80176266	     -0.11167528	     -1.00429015	      0.94318380	     -0.69056184	      3.26659211	      2.02834503	    -11.84898621	    -13.73836558	     11.14292198	     -1.25963389	      6.43646740	     -4.37065527	     -9.84252273	    -21.06791321	     13.22603634	     -1.41461104	     -8.01613571	     -1.26716867	     -4.08432644
      0.13000000	      0.05584507	     -2.77585283	     -0.08895965	     -1.00433548	      0.94318099	     -0.69085099	      3.28008190	      1.98550289	    -11.84435575	    -13.71631044	     11.12882549	     -1.24108968	      6.44051446	     -4.30952126	     -9.77317412	    -21.01642140	     13.19607308	     -1.43063127	     -8.00343952	     -1.27387396	     -4.09895921
      0.14000000	      0.05070980	     -2.77666344	     -0.08051817	     -1.00439993	      0.94318621	     -0.69109195	      3.28670487	      1.97191773	    -11.84451081	    -13.71096715	     11.12876973	     -1.23993604	      6.44749959	     -4.29496717	     -9.77642484	    -21.00902442	     13.19492715	     -1.43161316	     -8.01509419	     -1.25060573	     -4.09460966
      0.15000000	      0.04438793	     -2.77808446	     -0.07426243	     -1.00446344	      0.94319257	     -0.69130891	      3.29435583	      1.95978043	    -11.84723017	    -13.70446118	     11.12787309	     -1.23867910	      6.45466422	     -4.28227114	     -9.77733316	    -21.00058910	     13.19335301	     -1.43274790	     -8.02514943	     -1.22954880	     -4.08798552
      0.16000000	      0.01969031	     -2.78748079	     -0.06593641	     -1.00447921	      0.94318176	     -0.69150955	      3.32085468	      1.95350772	    -11.89950727	    -13.70187042	     11.11082387	     -1.22553049	      6.46909994	     -4.27307591	     -9.74272994	    -20.97178554	     13.17429734	     -1.44524503	     -8.00123135	     -1.20457723	     -4.03826276
      0.17000000	     -0.03129854	     -2.80252952	     -0.04129786	     -1.00456890	      0.94312209	     -0.69170960	      3.39378964	      1.95074243	    -11.96664119	    -13.72660943	     11.06919448	     -1.17293264	      6.54455566	     -4.27478464	     -9.69629611	    -20.98861249	     13.16825160	     -1.47683515	     -7.96204639	     -1.17347973	     -4.05192750
      0.18000000	     -0.04429632	     -2.81686022	     -0.03943904	     -1.00457557	      0.94312562	     -0.69185897	      3.40133718	      1.95473028	    -11.99737282	    -13.71318274	     11.07255319	     -1.16623566	      6.55442907	     -4.28071538	     -9.69186241	    -20.97961954	     13.16821215	     -1.47931064	     -7.95502160	     -1.15007693	     -4.00235659
      0.19000000	     -0.05655323	     -2.83524763	     -0.03291638	     -1.00457029	      0.94313041	     -0.69201572	      3.41217862	      1.96189891	    -12.03354247	    -13.70979711	     11.06348152	     -1.15891725	      6.56446342	     -4.29083575	     -9.68489765	    -20.97296749	     13.16809230	     -1.48075823	     -7.94776293	     -1.12202486	     -3.95506487
      0.20000000	     -0.07021177	     -2.85245759	     -0.02234629	     -1.00456269	      0.94313051	     -0.69217992	      3.42234578	      1.96812032	    -12.06840982	    -13.70351985	     11.04921508	     -1.14927714	      6.57847284	     -4.29975328	     -9.67489138	    -20.96901164	     13.17015016	     -1.48088644	     -7.94084083	     -1.09614499	     -3.91137533
      0.21000000	     -0.07520661	     -2.85640481	     -0.00703195	     -1.00455411	      0.94313841	     -0.69236935	      3.42416517	      1.96118543	    -12.06961689	    -13.70142443	     11.04737014	     -1.14796218	      6.58334189	     -4.29347869	     -9.67726442	    -20.96410594	     13.17087169	     -1.48054409	     -7.94459040	     -1.08204826	     -3.90018715
      0.22000000	     -0.08773535	     -2.86628613	      0.00985490	     -1.00452072	      0.94313345	     -0.69256043	      3.42814906	      1.95975155	    -12.09861379	    -13.68898064	     11.03731209	     -1.13863439	      6.59192336	     -4.29126649	     -9.65847823	    -20.95412145	     13.17131516	     -1.47913863	     -7.93383259	     -1.06535081	     -3.83811712
      0.23000000	     -0.09154069	     -2.86828878	      0.03108120	     -1.00450419	      0.94313386	     -0.69277574	      3.42929185	      1.94991476	    -12.09498932	    -13.68943529	     11.03579562	     -1.13734683	      6.59500270	     -4.28195461	     -9.66149393	    -20.94820265	     13.17207572	     -1.47854664	     -7.93641088	     -1.05078137	     -3.82688670
      0.24000000	     -0.10098768	     -2.86258991	      0.04726196	     -1.00449181	      0.94312642	     -0.69298474	      3.43634839	      1.93184406	    -12.09554025	    -13.68709147	     11.02939149	     -1.12532111	      6.59749699	     -4.25844556	     -9.63564017	    -20.93027021	     13.17311440	     -1.47516767	     -7.93177660	     -1.05007347	     -3.76864396
      0.25000000	     -0.10370775	     -2.86220316	      0.07051567	     -1.00448882	      0.94311939	     -0.69320687	      3.43856952	      1.91970059	    -12.08786999	    -13.68922252	     11.02912328	     -1.12418410	      6.59978246	     -4.24659639	     -9.64047782	    -20.92295164	     13.17352279	     -1.47454392	     -7.93603355	     -1.03616819	     -3.75914985
      0.26000000	     -0.10679791	     -2.83330615	      0.07748200	     -1.00452624	      0.94311583	     -0.69340583	      3.45517851	      1.87589359	    -12.05354107	    -13.71169665	     11.03321069	     -1.11060632	      6.59370115	     -4.19601320	     -9.61448323	    -20.89834826	     13.16977799	     -1.47084136	     -7.94724673	     -1.06381623	     -3.70212314
      0.27000000	     -0.10911853	     -2.83236337	      0.09891794	     -1.00453850	      0.94310899	     -0.69362239	      3.45895327	      1.86341170	    -12.04625049	    -13.71421538	     11.03453855	     -1.10982442	      6.59577519	     -4.18395126	     -9.62257160	    -20.88953237	     13.16898079	     -1.47058254	     -7.95303403	     -1.04966233	     -3.69499469
      0.28000000	     -0.10537317	     -2.78744509	      0.08988310	     -1.00461119	      0.94311108	     -0.69379772	      3.49207012	      1.79829592	    -12.00428696	    -13.77746648	     11.05698835	     -1.09751586	      6.58080711	     -4.11912743	     -9.62705827	    -20.86237271	     13.14468415	     -1.47214354	     -7.97810474	     -1.09598726	     -3.64687249
      0.29000000	     -0.10799795	     -2.78705455	      0.10920036	     -1.00463898	      0.94310184	     -0.69399372	      3.49720958	      1.78761499	    -11.99953009	    -13.77732772	     11.05900380	     -1.09714968	      6.58475179	     -4.10913928	     -9.63507518	    -20.85436612	     13.14362367	     -1.47229921	     -7.98616431	     -1.08394881	     -3.63911904
      0.30000000	     -0.11223435	     -2.74394675	      0.09457503	     -1.00469841	      0.94308922	     -0.69414716	      3.54227764	      1.72310723	    -11.97856382	    -13.84639766	     11.10111891	     -1.08796335	      6.57996108	     -4.05099871	     -9.66367449	    -20.83166762	     13.10522436	     -1.48544725	     -7.99754427	     -1.12967718	     -3.59079799
      0.31000000	     -0.10924312	     -2.73788833	      0.10618032	     -1.00476803	      0.94308184	     -0.69431301	      3.55543103	      1.70589752	    -11.96583111	    -13.86752520	     11.10252086	     -1.08740638	      6.59191687	     -4.03557280	     -9.65808099	    -20.84774456	     13.10051967	     -1.48921959	     -8.02087151	     -1.13007872	     -3.57337494
      0.32000000	     -0.12399972	     -2.71692521	      0.10132886	     -1.00484409	      0.94304415	     -0.69445881	      3.60718144	      1.66724252	    -11.96311023	    -13.92382879	     11.12386864	     -1.08393801	      6.61524967	     -4.00391521	     -9.66995848	    -20.85156585	     13.08350661	     -1.50973299	     -8.02306540	     -1.14934604	     -3.55001247
